# xmcd CD database file
#
# Track frame offsets:
#	150
#	26310
#	58264
#
# Disc length: 1309 seconds
#
# Revision: 2
# Processed by: cddbd v1.5.1PL0 Copyright (c) Steve Scherf et al.
# Submitted via: CDex 1.51
#
DISCID=1e051b03
DTITLE=Ilmari x Salyu - VALON
DYEAR=2003
DGENRE=JPop
TTITLE0=VALON
TTITLE1=VALON (-mold mix-)
TTITLE2=EXTRA TRACK
EXTD=YEAR: 2003
EXTT0=
EXTT1=
EXTT2=
PLAYORDER=
